<svg width="36" height="36" viewBox="0 0 36 36" fill="none" xmlns="http://www.w3.org/2000/svg">
<path d="M34.875 6.75H1.125V29.25H34.875V6.75Z" stroke="white" stroke-width="2" stroke-miterlimit="10" stroke-linecap="round" stroke-linejoin="round"/>
<path d="M31.5 22.5V13.5C29.5875 13.5 28.125 12.0375 28.125 10.125H7.875C7.875 12.0375 6.4125 13.5 4.5 13.5V22.5C6.4125 22.5 7.875 23.9625 7.875 25.875H28.125C28.125 23.9625 29.5875 22.5 31.5 22.5Z" stroke="white" stroke-width="2" stroke-miterlimit="10" stroke-linecap="round" stroke-linejoin="round"/>
<path d="M18 22.5C19.864 22.5 21.375 20.4853 21.375 18C21.375 15.5147 19.864 13.5 18 13.5C16.136 13.5 14.625 15.5147 14.625 18C14.625 20.4853 16.136 22.5 18 22.5Z" stroke="white" stroke-width="2" stroke-miterlimit="10" stroke-linecap="round" stroke-linejoin="round"/>
</svg>
