<?xml version="1.0" encoding="utf-8"?>
<!-- Generator: Adobe Illustrator 16.0.0, SVG Export Plug-In . SVG Version: 6.00 Build 0)  -->
<!DOCTYPE svg PUBLIC "-//W3C//DTD SVG 1.1//EN" "http://www.w3.org/Graphics/SVG/1.1/DTD/svg11.dtd">
<svg version="1.1" id="Layer_1" xmlns="http://www.w3.org/2000/svg" xmlns:xlink="http://www.w3.org/1999/xlink" x="0px" y="0px"
	 width="24px" height="24px" viewBox="0 0 24 24" enable-background="new 0 0 24 24" xml:space="preserve">
<g>
	<path fill-rule="evenodd" clip-rule="evenodd" fill="#FFFFFF" d="M18.103,23.764c-0.221,0-0.442-0.032-0.66-0.096
		c-0.314-0.097-0.621-0.263-0.865-0.468c-0.961-0.813-1.915-1.632-2.868-2.451l-0.915-0.785l-2.181,2.222
		c-0.373,0.376-0.808,0.574-1.259,0.574c-0.648,0-1.204-0.399-1.524-1.095c-0.124-0.267-0.232-0.572-0.338-0.96
		c-0.511-1.837-1.018-3.678-1.516-5.52c-0.958-0.356-4.108-1.544-4.108-1.544c-0.613-0.232-1.048-0.588-1.331-1.087
		c-0.497-0.874-0.375-1.835,0.318-2.507C1.099,9.809,1.399,9.603,1.72,9.452c6.151-2.904,12.307-5.801,18.462-8.697l0.411-0.193
		c0.178-0.083,0.416-0.188,0.679-0.253c0.188-0.047,0.376-0.071,0.559-0.071c0.561,0,1.065,0.221,1.421,0.622
		c0.4,0.45,0.574,1.081,0.491,1.778c-0.083,0.704-0.208,1.402-0.332,2.099l-2.414,13.826l-0.24,1.397
		c-0.107,0.627-0.215,1.254-0.328,1.881C20.225,22.954,19.247,23.764,18.103,23.764z M12.392,16.396
		c0.324,0.265,0.648,0.53,0.968,0.804c0,0.001,4.713,4.036,4.721,4.042c0.008-0.023,0.016-0.054,0.022-0.092l1.138-6.546
		c0.675-3.864,1.349-7.73,2.016-11.596c-0.807,0.378-1.612,0.756-2.418,1.134c0.078-0.016,0.157-0.024,0.235-0.024
		c0.353,0,0.675,0.161,0.907,0.452c0.367,0.462,0.37,1.071,0.006,1.59l-0.08,0.109l-7.705,9.97L12.392,16.396z M9.078,17.383
		l0.201-0.952c0.076-0.353,0.228-0.689,0.429-0.95c1.014-1.322,2.031-2.641,3.049-3.96L8.355,14.75L9.078,17.383z M3.242,11.487
		c0.701,0.272,1.41,0.539,2.119,0.805l1.469,0.555c2.313-1.74,4.692-3.485,7.071-5.229L18.289,4.4
		C13.268,6.758,8.253,9.121,3.242,11.487z"/>
</g>
</svg>
