<?xml version="1.0" encoding="utf-8"?>
<!-- Generator: Adobe Illustrator 16.0.0, SVG Export Plug-In . SVG Version: 6.00 Build 0)  -->
<!DOCTYPE svg PUBLIC "-//W3C//DTD SVG 1.1//EN" "http://www.w3.org/Graphics/SVG/1.1/DTD/svg11.dtd">
<svg version="1.1" id="Layer_1" xmlns="http://www.w3.org/2000/svg" xmlns:xlink="http://www.w3.org/1999/xlink" x="0px" y="0px"
	 width="24px" height="24px" viewBox="0 0 24 24" enable-background="new 0 0 24 24" xml:space="preserve">
<path fill-rule="evenodd" clip-rule="evenodd" fill="#FFFFFF" d="M7.226,17.45c-2.336-0.33-4.057-1.652-4.452-3.382
	c0.625,0,1.244,0,1.862,0c0.015-0.045,0.03-0.09,0.046-0.136c-1.063-0.325-1.974-0.868-2.645-1.744
	C1.37,11.32,0.993,10.356,1.021,9.253C1.712,9.447,2.356,9.627,3,9.809C1.012,7.935,0.498,5.837,1.674,3.281
	c2.673,3.087,5.991,4.787,10.078,5.077c0-0.686-0.094-1.347,0.018-1.973c0.321-1.807,1.399-3.072,3.135-3.682
	c1.772-0.623,3.434-0.308,4.871,0.917c0.271,0.232,0.5,0.326,0.829,0.204c0.844-0.31,1.691-0.611,2.563-0.924
	c-0.333,1.036-1.035,1.806-1.85,2.553c0.806-0.218,1.611-0.436,2.473-0.669c-0.522,0.811-1.159,1.478-1.899,2.042
	c-0.319,0.244-0.438,0.488-0.438,0.897c0.009,6.187-4.218,12.54-11.523,13.693c-3.184,0.502-6.229,0.023-9.077-1.518
	c-0.146-0.079-0.288-0.163-0.429-0.25c-0.04-0.023-0.073-0.061-0.215-0.185C2.825,19.621,5.127,19.028,7.226,17.45z"/>
</svg>
